<svg xmlns="http://www.w3.org/2000/svg" width="1200" height="700" viewBox="0 0 1200 700">
  <rect width="1200" height="700" fill="#0d1420"/>
  <text x="40" y="52" fill="#7edfcf" font-size="30" font-family="Arial">AVRYai AI Receptionist Platform - High-level architecture</text>
  <rect x="60" y="140" width="210" height="90" rx="10" fill="#142133" stroke="#2f4c63"/>
  <text x="95" y="192" fill="#e7edf5" font-size="24" font-family="Arial">Telephony</text>
  <rect x="350" y="140" width="260" height="90" rx="10" fill="#142133" stroke="#2f4c63"/>
  <text x="395" y="192" fill="#e7edf5" font-size="24" font-family="Arial">Voice Gateway</text>
  <rect x="700" y="140" width="250" height="90" rx="10" fill="#142133" stroke="#2f4c63"/>
  <text x="772" y="192" fill="#e7edf5" font-size="24" font-family="Arial">FastAPI</text>
  <rect x="700" y="320" width="250" height="90" rx="10" fill="#142133" stroke="#2f4c63"/>
  <text x="780" y="372" fill="#e7edf5" font-size="24" font-family="Arial">Postgres</text>
  <rect x="1000" y="140" width="150" height="90" rx="10" fill="#142133" stroke="#2f4c63"/>
  <text x="1035" y="192" fill="#e7edf5" font-size="24" font-family="Arial">SMS</text>
  <rect x="1000" y="320" width="150" height="90" rx="10" fill="#142133" stroke="#2f4c63"/>
  <text x="1020" y="372" fill="#e7edf5" font-size="24" font-family="Arial">Calendar</text>
  <line x1="270" y1="185" x2="350" y2="185" stroke="#7edfcf" stroke-width="3"/>
  <line x1="610" y1="185" x2="700" y2="185" stroke="#7edfcf" stroke-width="3"/>
  <line x1="825" y1="230" x2="825" y2="320" stroke="#7edfcf" stroke-width="3"/>
  <line x1="950" y1="185" x2="1000" y2="185" stroke="#7edfcf" stroke-width="3"/>
  <line x1="950" y1="360" x2="1000" y2="360" stroke="#7edfcf" stroke-width="3"/>
</svg>
