<svg xmlns="http://www.w3.org/2000/svg" width="1200" height="700" viewBox="0 0 1200 700">
  <rect width="1200" height="700" fill="#0d1420"/>
  <text x="40" y="52" fill="#7edfcf" font-size="30" font-family="Arial">Beary Trading Dashboard - High-level architecture</text>
  <rect x="80" y="170" width="250" height="90" rx="10" fill="#142133" stroke="#2f4c63"/>
  <text x="145" y="222" fill="#e7edf5" font-size="24" font-family="Arial">React UI</text>
  <rect x="410" y="170" width="260" height="90" rx="10" fill="#142133" stroke="#2f4c63"/>
  <text x="490" y="222" fill="#e7edf5" font-size="24" font-family="Arial">FastAPI</text>
  <rect x="750" y="170" width="180" height="90" rx="10" fill="#142133" stroke="#2f4c63"/>
  <text x="796" y="222" fill="#e7edf5" font-size="24" font-family="Arial">WS Hub</text>
  <rect x="1010" y="170" width="130" height="90" rx="10" fill="#142133" stroke="#2f4c63"/>
  <text x="1030" y="222" fill="#e7edf5" font-size="24" font-family="Arial">Feeds</text>
  <rect x="410" y="360" width="260" height="90" rx="10" fill="#142133" stroke="#2f4c63"/>
  <text x="490" y="412" fill="#e7edf5" font-size="24" font-family="Arial">Postgres</text>
  <rect x="750" y="360" width="180" height="90" rx="10" fill="#142133" stroke="#2f4c63"/>
  <text x="770" y="412" fill="#e7edf5" font-size="24" font-family="Arial">Scanner</text>
  <line x1="330" y1="215" x2="410" y2="215" stroke="#7edfcf" stroke-width="3"/>
  <line x1="670" y1="215" x2="750" y2="215" stroke="#7edfcf" stroke-width="3"/>
  <line x1="930" y1="215" x2="1010" y2="215" stroke="#7edfcf" stroke-width="3"/>
  <line x1="540" y1="260" x2="540" y2="360" stroke="#7edfcf" stroke-width="3"/>
  <line x1="750" y1="405" x2="670" y2="405" stroke="#7edfcf" stroke-width="3"/>
</svg>
